<?xml version="1.0" encoding="utf-8" standalone="no"?>
<!DOCTYPE svg PUBLIC "-//W3C//DTD SVG 1.1//EN"
  "http://www.w3.org/Graphics/SVG/1.1/DTD/svg11.dtd">
<!-- Created with matplotlib (https://matplotlib.org/) -->
<svg height="720pt" version="1.1" viewBox="0 0 720 720" width="720pt" xmlns="http://www.w3.org/2000/svg" xmlns:xlink="http://www.w3.org/1999/xlink">
 <defs>
  <style type="text/css">
*{stroke-linecap:butt;stroke-linejoin:round;}
  </style>
 </defs>
 <g id="figure_1">
  <g id="patch_1">
   <path d="M 0 720 
L 720 720 
L 720 0 
L 0 0 
z
" style="fill:#ffffff;"/>
  </g>
  <g id="axes_1">
   <g id="patch_2">
    <path d="M 90 640.8 
L 648 640.8 
L 648 86.4 
L 90 86.4 
z
" style="fill:#ffffff;"/>
   </g>
   <g id="matplotlib.axis_1">
    <g id="xtick_1">
     <g id="line2d_1">
      <path clip-path="url(#p0b34b1688d)" d="M 112.814527 640.8 
L 112.814527 86.4 
" style="fill:none;stroke:#b0b0b0;stroke-linecap:square;stroke-width:0.8;"/>
     </g>
     <g id="line2d_2">
      <defs>
       <path d="M 0 0 
L 0 3.5 
" id="macedbeead7" style="stroke:#000000;stroke-width:0.8;"/>
      </defs>
      <g>
       <use style="stroke:#000000;stroke-width:0.8;" x="112.814527" xlink:href="#macedbeead7" y="640.8"/>
      </g>
     </g>
     <g id="text_1">
      <!-- 0 -->
      <defs>
       <path d="M 31.78125 66.40625 
Q 24.171875 66.40625 20.328125 58.90625 
Q 16.5 51.421875 16.5 36.375 
Q 16.5 21.390625 20.328125 13.890625 
Q 24.171875 6.390625 31.78125 6.390625 
Q 39.453125 6.390625 43.28125 13.890625 
Q 47.125 21.390625 47.125 36.375 
Q 47.125 51.421875 43.28125 58.90625 
Q 39.453125 66.40625 31.78125 66.40625 
z
M 31.78125 74.21875 
Q 44.046875 74.21875 50.515625 64.515625 
Q 56.984375 54.828125 56.984375 36.375 
Q 56.984375 17.96875 50.515625 8.265625 
Q 44.046875 -1.421875 31.78125 -1.421875 
Q 19.53125 -1.421875 13.0625 8.265625 
Q 6.59375 17.96875 6.59375 36.375 
Q 6.59375 54.828125 13.0625 64.515625 
Q 19.53125 74.21875 31.78125 74.21875 
z
" id="DejaVuSans-48"/>
      </defs>
      <g transform="translate(109.633277 655.398438)scale(0.1 -0.1)">
       <use xlink:href="#DejaVuSans-48"/>
      </g>
     </g>
    </g>
    <g id="xtick_2">
     <g id="line2d_3">
      <path clip-path="url(#p0b34b1688d)" d="M 176.542257 640.8 
L 176.542257 86.4 
" style="fill:none;stroke:#b0b0b0;stroke-linecap:square;stroke-width:0.8;"/>
     </g>
     <g id="line2d_4">
      <g>
       <use style="stroke:#000000;stroke-width:0.8;" x="176.542257" xlink:href="#macedbeead7" y="640.8"/>
      </g>
     </g>
     <g id="text_2">
      <!-- 25 -->
      <defs>
       <path d="M 19.1875 8.296875 
L 53.609375 8.296875 
L 53.609375 0 
L 7.328125 0 
L 7.328125 8.296875 
Q 12.9375 14.109375 22.625 23.890625 
Q 32.328125 33.6875 34.8125 36.53125 
Q 39.546875 41.84375 41.421875 45.53125 
Q 43.3125 49.21875 43.3125 52.78125 
Q 43.3125 58.59375 39.234375 62.25 
Q 35.15625 65.921875 28.609375 65.921875 
Q 23.96875 65.921875 18.8125 64.3125 
Q 13.671875 62.703125 7.8125 59.421875 
L 7.8125 69.390625 
Q 13.765625 71.78125 18.9375 73 
Q 24.125 74.21875 28.421875 74.21875 
Q 39.75 74.21875 46.484375 68.546875 
Q 53.21875 62.890625 53.21875 53.421875 
Q 53.21875 48.921875 51.53125 44.890625 
Q 49.859375 40.875 45.40625 35.40625 
Q 44.1875 33.984375 37.640625 27.21875 
Q 31.109375 20.453125 19.1875 8.296875 
z
" id="DejaVuSans-50"/>
       <path d="M 10.796875 72.90625 
L 49.515625 72.90625 
L 49.515625 64.59375 
L 19.828125 64.59375 
L 19.828125 46.734375 
Q 21.96875 47.46875 24.109375 47.828125 
Q 26.265625 48.1875 28.421875 48.1875 
Q 40.625 48.1875 47.75 41.5 
Q 54.890625 34.8125 54.890625 23.390625 
Q 54.890625 11.625 47.5625 5.09375 
Q 40.234375 -1.421875 26.90625 -1.421875 
Q 22.3125 -1.421875 17.546875 -0.640625 
Q 12.796875 0.140625 7.71875 1.703125 
L 7.71875 11.625 
Q 12.109375 9.234375 16.796875 8.0625 
Q 21.484375 6.890625 26.703125 6.890625 
Q 35.15625 6.890625 40.078125 11.328125 
Q 45.015625 15.765625 45.015625 23.390625 
Q 45.015625 31 40.078125 35.4375 
Q 35.15625 39.890625 26.703125 39.890625 
Q 22.75 39.890625 18.8125 39.015625 
Q 14.890625 38.140625 10.796875 36.28125 
z
" id="DejaVuSans-53"/>
      </defs>
      <g transform="translate(170.179757 655.398438)scale(0.1 -0.1)">
       <use xlink:href="#DejaVuSans-50"/>
       <use x="63.623047" xlink:href="#DejaVuSans-53"/>
      </g>
     </g>
    </g>
    <g id="xtick_3">
     <g id="line2d_5">
      <path clip-path="url(#p0b34b1688d)" d="M 240.269986 640.8 
L 240.269986 86.4 
" style="fill:none;stroke:#b0b0b0;stroke-linecap:square;stroke-width:0.8;"/>
     </g>
     <g id="line2d_6">
      <g>
       <use style="stroke:#000000;stroke-width:0.8;" x="240.269986" xlink:href="#macedbeead7" y="640.8"/>
      </g>
     </g>
     <g id="text_3">
      <!-- 50 -->
      <g transform="translate(233.907486 655.398438)scale(0.1 -0.1)">
       <use xlink:href="#DejaVuSans-53"/>
       <use x="63.623047" xlink:href="#DejaVuSans-48"/>
      </g>
     </g>
    </g>
    <g id="xtick_4">
     <g id="line2d_7">
      <path clip-path="url(#p0b34b1688d)" d="M 303.997716 640.8 
L 303.997716 86.4 
" style="fill:none;stroke:#b0b0b0;stroke-linecap:square;stroke-width:0.8;"/>
     </g>
     <g id="line2d_8">
      <g>
       <use style="stroke:#000000;stroke-width:0.8;" x="303.997716" xlink:href="#macedbeead7" y="640.8"/>
      </g>
     </g>
     <g id="text_4">
      <!-- 75 -->
      <defs>
       <path d="M 8.203125 72.90625 
L 55.078125 72.90625 
L 55.078125 68.703125 
L 28.609375 0 
L 18.3125 0 
L 43.21875 64.59375 
L 8.203125 64.59375 
z
" id="DejaVuSans-55"/>
      </defs>
      <g transform="translate(297.635216 655.398438)scale(0.1 -0.1)">
       <use xlink:href="#DejaVuSans-55"/>
       <use x="63.623047" xlink:href="#DejaVuSans-53"/>
      </g>
     </g>
    </g>
    <g id="xtick_5">
     <g id="line2d_9">
      <path clip-path="url(#p0b34b1688d)" d="M 367.725445 640.8 
L 367.725445 86.4 
" style="fill:none;stroke:#b0b0b0;stroke-linecap:square;stroke-width:0.8;"/>
     </g>
     <g id="line2d_10">
      <g>
       <use style="stroke:#000000;stroke-width:0.8;" x="367.725445" xlink:href="#macedbeead7" y="640.8"/>
      </g>
     </g>
     <g id="text_5">
      <!-- 100 -->
      <defs>
       <path d="M 12.40625 8.296875 
L 28.515625 8.296875 
L 28.515625 63.921875 
L 10.984375 60.40625 
L 10.984375 69.390625 
L 28.421875 72.90625 
L 38.28125 72.90625 
L 38.28125 8.296875 
L 54.390625 8.296875 
L 54.390625 0 
L 12.40625 0 
z
" id="DejaVuSans-49"/>
      </defs>
      <g transform="translate(358.181695 655.398438)scale(0.1 -0.1)">
       <use xlink:href="#DejaVuSans-49"/>
       <use x="63.623047" xlink:href="#DejaVuSans-48"/>
       <use x="127.246094" xlink:href="#DejaVuSans-48"/>
      </g>
     </g>
    </g>
    <g id="xtick_6">
     <g id="line2d_11">
      <path clip-path="url(#p0b34b1688d)" d="M 431.453175 640.8 
L 431.453175 86.4 
" style="fill:none;stroke:#b0b0b0;stroke-linecap:square;stroke-width:0.8;"/>
     </g>
     <g id="line2d_12">
      <g>
       <use style="stroke:#000000;stroke-width:0.8;" x="431.453175" xlink:href="#macedbeead7" y="640.8"/>
      </g>
     </g>
     <g id="text_6">
      <!-- 125 -->
      <g transform="translate(421.909425 655.398438)scale(0.1 -0.1)">
       <use xlink:href="#DejaVuSans-49"/>
       <use x="63.623047" xlink:href="#DejaVuSans-50"/>
       <use x="127.246094" xlink:href="#DejaVuSans-53"/>
      </g>
     </g>
    </g>
    <g id="xtick_7">
     <g id="line2d_13">
      <path clip-path="url(#p0b34b1688d)" d="M 495.180905 640.8 
L 495.180905 86.4 
" style="fill:none;stroke:#b0b0b0;stroke-linecap:square;stroke-width:0.8;"/>
     </g>
     <g id="line2d_14">
      <g>
       <use style="stroke:#000000;stroke-width:0.8;" x="495.180905" xlink:href="#macedbeead7" y="640.8"/>
      </g>
     </g>
     <g id="text_7">
      <!-- 150 -->
      <g transform="translate(485.637155 655.398438)scale(0.1 -0.1)">
       <use xlink:href="#DejaVuSans-49"/>
       <use x="63.623047" xlink:href="#DejaVuSans-53"/>
       <use x="127.246094" xlink:href="#DejaVuSans-48"/>
      </g>
     </g>
    </g>
    <g id="xtick_8">
     <g id="line2d_15">
      <path clip-path="url(#p0b34b1688d)" d="M 558.908634 640.8 
L 558.908634 86.4 
" style="fill:none;stroke:#b0b0b0;stroke-linecap:square;stroke-width:0.8;"/>
     </g>
     <g id="line2d_16">
      <g>
       <use style="stroke:#000000;stroke-width:0.8;" x="558.908634" xlink:href="#macedbeead7" y="640.8"/>
      </g>
     </g>
     <g id="text_8">
      <!-- 175 -->
      <g transform="translate(549.364884 655.398438)scale(0.1 -0.1)">
       <use xlink:href="#DejaVuSans-49"/>
       <use x="63.623047" xlink:href="#DejaVuSans-55"/>
       <use x="127.246094" xlink:href="#DejaVuSans-53"/>
      </g>
     </g>
    </g>
    <g id="xtick_9">
     <g id="line2d_17">
      <path clip-path="url(#p0b34b1688d)" d="M 622.636364 640.8 
L 622.636364 86.4 
" style="fill:none;stroke:#b0b0b0;stroke-linecap:square;stroke-width:0.8;"/>
     </g>
     <g id="line2d_18">
      <g>
       <use style="stroke:#000000;stroke-width:0.8;" x="622.636364" xlink:href="#macedbeead7" y="640.8"/>
      </g>
     </g>
     <g id="text_9">
      <!-- 200 -->
      <g transform="translate(613.092614 655.398438)scale(0.1 -0.1)">
       <use xlink:href="#DejaVuSans-50"/>
       <use x="63.623047" xlink:href="#DejaVuSans-48"/>
       <use x="127.246094" xlink:href="#DejaVuSans-48"/>
      </g>
     </g>
    </g>
    <g id="text_10">
     <!-- Iterações -->
     <defs>
      <path d="M 9.8125 72.90625 
L 19.671875 72.90625 
L 19.671875 0 
L 9.8125 0 
z
" id="DejaVuSans-73"/>
      <path d="M 18.3125 70.21875 
L 18.3125 54.6875 
L 36.8125 54.6875 
L 36.8125 47.703125 
L 18.3125 47.703125 
L 18.3125 18.015625 
Q 18.3125 11.328125 20.140625 9.421875 
Q 21.96875 7.515625 27.59375 7.515625 
L 36.8125 7.515625 
L 36.8125 0 
L 27.59375 0 
Q 17.1875 0 13.234375 3.875 
Q 9.28125 7.765625 9.28125 18.015625 
L 9.28125 47.703125 
L 2.6875 47.703125 
L 2.6875 54.6875 
L 9.28125 54.6875 
L 9.28125 70.21875 
z
" id="DejaVuSans-116"/>
      <path d="M 56.203125 29.59375 
L 56.203125 25.203125 
L 14.890625 25.203125 
Q 15.484375 15.921875 20.484375 11.0625 
Q 25.484375 6.203125 34.421875 6.203125 
Q 39.59375 6.203125 44.453125 7.46875 
Q 49.3125 8.734375 54.109375 11.28125 
L 54.109375 2.78125 
Q 49.265625 0.734375 44.1875 -0.34375 
Q 39.109375 -1.421875 33.890625 -1.421875 
Q 20.796875 -1.421875 13.15625 6.1875 
Q 5.515625 13.8125 5.515625 26.8125 
Q 5.515625 40.234375 12.765625 48.109375 
Q 20.015625 56 32.328125 56 
Q 43.359375 56 49.78125 48.890625 
Q 56.203125 41.796875 56.203125 29.59375 
z
M 47.21875 32.234375 
Q 47.125 39.59375 43.09375 43.984375 
Q 39.0625 48.390625 32.421875 48.390625 
Q 24.90625 48.390625 20.390625 44.140625 
Q 15.875 39.890625 15.1875 32.171875 
z
" id="DejaVuSans-101"/>
      <path d="M 41.109375 46.296875 
Q 39.59375 47.171875 37.8125 47.578125 
Q 36.03125 48 33.890625 48 
Q 26.265625 48 22.1875 43.046875 
Q 18.109375 38.09375 18.109375 28.8125 
L 18.109375 0 
L 9.078125 0 
L 9.078125 54.6875 
L 18.109375 54.6875 
L 18.109375 46.1875 
Q 20.953125 51.171875 25.484375 53.578125 
Q 30.03125 56 36.53125 56 
Q 37.453125 56 38.578125 55.875 
Q 39.703125 55.765625 41.0625 55.515625 
z
" id="DejaVuSans-114"/>
      <path d="M 34.28125 27.484375 
Q 23.390625 27.484375 19.1875 25 
Q 14.984375 22.515625 14.984375 16.5 
Q 14.984375 11.71875 18.140625 8.90625 
Q 21.296875 6.109375 26.703125 6.109375 
Q 34.1875 6.109375 38.703125 11.40625 
Q 43.21875 16.703125 43.21875 25.484375 
L 43.21875 27.484375 
z
M 52.203125 31.203125 
L 52.203125 0 
L 43.21875 0 
L 43.21875 8.296875 
Q 40.140625 3.328125 35.546875 0.953125 
Q 30.953125 -1.421875 24.3125 -1.421875 
Q 15.921875 -1.421875 10.953125 3.296875 
Q 6 8.015625 6 15.921875 
Q 6 25.140625 12.171875 29.828125 
Q 18.359375 34.515625 30.609375 34.515625 
L 43.21875 34.515625 
L 43.21875 35.40625 
Q 43.21875 41.609375 39.140625 45 
Q 35.0625 48.390625 27.6875 48.390625 
Q 23 48.390625 18.546875 47.265625 
Q 14.109375 46.140625 10.015625 43.890625 
L 10.015625 52.203125 
Q 14.9375 54.109375 19.578125 55.046875 
Q 24.21875 56 28.609375 56 
Q 40.484375 56 46.34375 49.84375 
Q 52.203125 43.703125 52.203125 31.203125 
z
" id="DejaVuSans-97"/>
      <path d="M 48.78125 52.59375 
L 48.78125 44.1875 
Q 44.96875 46.296875 41.140625 47.34375 
Q 37.3125 48.390625 33.40625 48.390625 
Q 24.65625 48.390625 19.8125 42.84375 
Q 14.984375 37.3125 14.984375 27.296875 
Q 14.984375 17.28125 19.8125 11.734375 
Q 24.65625 6.203125 33.40625 6.203125 
Q 37.3125 6.203125 41.140625 7.25 
Q 44.96875 8.296875 48.78125 10.40625 
L 48.78125 2.09375 
Q 45.015625 0.34375 40.984375 -0.53125 
Q 36.96875 -1.421875 32.421875 -1.421875 
Q 20.0625 -1.421875 12.78125 6.34375 
Q 5.515625 14.109375 5.515625 27.296875 
Q 5.515625 40.671875 12.859375 48.328125 
Q 20.21875 56 33.015625 56 
Q 37.15625 56 41.109375 55.140625 
Q 45.0625 54.296875 48.78125 52.59375 
z
M 36.109375 0 
Q 38.78125 -3.03125 40.09375 -5.59375 
Q 41.421875 -8.15625 41.421875 -10.5 
Q 41.421875 -14.84375 38.484375 -17.0625 
Q 35.5625 -19.28125 29.796875 -19.28125 
Q 27.5625 -19.28125 25.4375 -18.984375 
Q 23.3125 -18.703125 21.203125 -18.109375 
L 21.203125 -11.71875 
Q 22.875 -12.546875 24.671875 -12.90625 
Q 26.484375 -13.28125 28.78125 -13.28125 
Q 31.65625 -13.28125 33.125 -12.109375 
Q 34.59375 -10.9375 34.59375 -8.6875 
Q 34.59375 -7.234375 33.53125 -5.109375 
Q 32.484375 -2.984375 30.296875 0 
z
" id="DejaVuSans-231"/>
      <path d="M 30.609375 48.390625 
Q 23.390625 48.390625 19.1875 42.75 
Q 14.984375 37.109375 14.984375 27.296875 
Q 14.984375 17.484375 19.15625 11.84375 
Q 23.34375 6.203125 30.609375 6.203125 
Q 37.796875 6.203125 41.984375 11.859375 
Q 46.1875 17.53125 46.1875 27.296875 
Q 46.1875 37.015625 41.984375 42.703125 
Q 37.796875 48.390625 30.609375 48.390625 
z
M 30.609375 56 
Q 42.328125 56 49.015625 48.375 
Q 55.71875 40.765625 55.71875 27.296875 
Q 55.71875 13.875 49.015625 6.21875 
Q 42.328125 -1.421875 30.609375 -1.421875 
Q 18.84375 -1.421875 12.171875 6.21875 
Q 5.515625 13.875 5.515625 27.296875 
Q 5.515625 40.765625 12.171875 48.375 
Q 18.84375 56 30.609375 56 
z
M 30.4375 66.890625 
L 27.640625 69.578125 
Q 26.578125 70.5625 25.765625 71.015625 
Q 24.96875 71.484375 24.328125 71.484375 
Q 22.46875 71.484375 21.59375 69.703125 
Q 20.71875 67.921875 20.609375 63.921875 
L 14.515625 63.921875 
Q 14.609375 70.515625 17.09375 74.09375 
Q 19.59375 77.6875 24.03125 77.6875 
Q 25.890625 77.6875 27.453125 77 
Q 29.015625 76.3125 30.828125 74.703125 
L 33.609375 72.015625 
Q 34.671875 71.046875 35.484375 70.578125 
Q 36.296875 70.125 36.921875 70.125 
Q 38.78125 70.125 39.65625 71.90625 
Q 40.53125 73.6875 40.640625 77.6875 
L 46.734375 77.6875 
Q 46.640625 71.09375 44.140625 67.5 
Q 41.65625 63.921875 37.21875 63.921875 
Q 35.359375 63.921875 33.796875 64.59375 
Q 32.234375 65.28125 30.4375 66.890625 
z
" id="DejaVuSans-245"/>
      <path d="M 44.28125 53.078125 
L 44.28125 44.578125 
Q 40.484375 46.53125 36.375 47.5 
Q 32.28125 48.484375 27.875 48.484375 
Q 21.1875 48.484375 17.84375 46.4375 
Q 14.5 44.390625 14.5 40.28125 
Q 14.5 37.15625 16.890625 35.375 
Q 19.28125 33.59375 26.515625 31.984375 
L 29.59375 31.296875 
Q 39.15625 29.25 43.1875 25.515625 
Q 47.21875 21.78125 47.21875 15.09375 
Q 47.21875 7.46875 41.1875 3.015625 
Q 35.15625 -1.421875 24.609375 -1.421875 
Q 20.21875 -1.421875 15.453125 -0.5625 
Q 10.6875 0.296875 5.421875 2 
L 5.421875 11.28125 
Q 10.40625 8.6875 15.234375 7.390625 
Q 20.0625 6.109375 24.8125 6.109375 
Q 31.15625 6.109375 34.5625 8.28125 
Q 37.984375 10.453125 37.984375 14.40625 
Q 37.984375 18.0625 35.515625 20.015625 
Q 33.0625 21.96875 24.703125 23.78125 
L 21.578125 24.515625 
Q 13.234375 26.265625 9.515625 29.90625 
Q 5.8125 33.546875 5.8125 39.890625 
Q 5.8125 47.609375 11.28125 51.796875 
Q 16.75 56 26.8125 56 
Q 31.78125 56 36.171875 55.265625 
Q 40.578125 54.546875 44.28125 53.078125 
z
" id="DejaVuSans-115"/>
     </defs>
     <g transform="translate(345.878906 669.095312)scale(0.1 -0.1)">
      <use xlink:href="#DejaVuSans-73"/>
      <use x="29.492188" xlink:href="#DejaVuSans-116"/>
      <use x="68.701172" xlink:href="#DejaVuSans-101"/>
      <use x="130.224609" xlink:href="#DejaVuSans-114"/>
      <use x="171.337891" xlink:href="#DejaVuSans-97"/>
      <use x="232.617188" xlink:href="#DejaVuSans-231"/>
      <use x="287.597656" xlink:href="#DejaVuSans-245"/>
      <use x="348.779297" xlink:href="#DejaVuSans-101"/>
      <use x="410.302734" xlink:href="#DejaVuSans-115"/>
     </g>
    </g>
   </g>
   <g id="matplotlib.axis_2">
    <g id="ytick_1">
     <g id="line2d_19">
      <path clip-path="url(#p0b34b1688d)" d="M 90 462.566152 
L 648 462.566152 
" style="fill:none;stroke:#b0b0b0;stroke-linecap:square;stroke-width:0.8;"/>
     </g>
     <g id="line2d_20">
      <defs>
       <path d="M 0 0 
L -3.5 0 
" id="m9a0b6f9b04" style="stroke:#000000;stroke-width:0.8;"/>
      </defs>
      <g>
       <use style="stroke:#000000;stroke-width:0.8;" x="90" xlink:href="#m9a0b6f9b04" y="462.566152"/>
      </g>
     </g>
     <g id="text_11">
      <!-- $\mathdefault{10^{-1}}$ -->
      <defs>
       <path d="M 10.59375 35.5 
L 73.1875 35.5 
L 73.1875 27.203125 
L 10.59375 27.203125 
z
" id="DejaVuSans-8722"/>
      </defs>
      <g transform="translate(59.5 466.365371)scale(0.1 -0.1)">
       <use transform="translate(0 0.684375)" xlink:href="#DejaVuSans-49"/>
       <use transform="translate(63.623047 0.684375)" xlink:href="#DejaVuSans-48"/>
       <use transform="translate(128.203125 38.965625)scale(0.7)" xlink:href="#DejaVuSans-8722"/>
       <use transform="translate(186.855469 38.965625)scale(0.7)" xlink:href="#DejaVuSans-49"/>
      </g>
     </g>
    </g>
    <g id="ytick_2">
     <g id="line2d_21">
      <path clip-path="url(#p0b34b1688d)" d="M 90 226.149077 
L 648 226.149077 
" style="fill:none;stroke:#b0b0b0;stroke-linecap:square;stroke-width:0.8;"/>
     </g>
     <g id="line2d_22">
      <g>
       <use style="stroke:#000000;stroke-width:0.8;" x="90" xlink:href="#m9a0b6f9b04" y="226.149077"/>
      </g>
     </g>
     <g id="text_12">
      <!-- $\mathdefault{10^{0}}$ -->
      <g transform="translate(65.4 229.948295)scale(0.1 -0.1)">
       <use transform="translate(0 0.765625)" xlink:href="#DejaVuSans-49"/>
       <use transform="translate(63.623047 0.765625)" xlink:href="#DejaVuSans-48"/>
       <use transform="translate(128.203125 39.046875)scale(0.7)" xlink:href="#DejaVuSans-48"/>
      </g>
     </g>
    </g>
    <g id="ytick_3">
     <g id="line2d_23">
      <defs>
       <path d="M 0 0 
L -2 0 
" id="m6e9f8ed8de" style="stroke:#000000;stroke-width:0.6;"/>
      </defs>
      <g>
       <use style="stroke:#000000;stroke-width:0.6;" x="90" xlink:href="#m6e9f8ed8de" y="627.814597"/>
      </g>
     </g>
    </g>
    <g id="ytick_4">
     <g id="line2d_24">
      <g>
       <use style="stroke:#000000;stroke-width:0.6;" x="90" xlink:href="#m6e9f8ed8de" y="586.183616"/>
      </g>
     </g>
    </g>
    <g id="ytick_5">
     <g id="line2d_25">
      <g>
       <use style="stroke:#000000;stroke-width:0.6;" x="90" xlink:href="#m6e9f8ed8de" y="556.645965"/>
      </g>
     </g>
    </g>
    <g id="ytick_6">
     <g id="line2d_26">
      <g>
       <use style="stroke:#000000;stroke-width:0.6;" x="90" xlink:href="#m6e9f8ed8de" y="533.734784"/>
      </g>
     </g>
    </g>
    <g id="ytick_7">
     <g id="line2d_27">
      <g>
       <use style="stroke:#000000;stroke-width:0.6;" x="90" xlink:href="#m6e9f8ed8de" y="515.014985"/>
      </g>
     </g>
    </g>
    <g id="ytick_8">
     <g id="line2d_28">
      <g>
       <use style="stroke:#000000;stroke-width:0.6;" x="90" xlink:href="#m6e9f8ed8de" y="499.187621"/>
      </g>
     </g>
    </g>
    <g id="ytick_9">
     <g id="line2d_29">
      <g>
       <use style="stroke:#000000;stroke-width:0.6;" x="90" xlink:href="#m6e9f8ed8de" y="485.477334"/>
      </g>
     </g>
    </g>
    <g id="ytick_10">
     <g id="line2d_30">
      <g>
       <use style="stroke:#000000;stroke-width:0.6;" x="90" xlink:href="#m6e9f8ed8de" y="473.384004"/>
      </g>
     </g>
    </g>
    <g id="ytick_11">
     <g id="line2d_31">
      <g>
       <use style="stroke:#000000;stroke-width:0.6;" x="90" xlink:href="#m6e9f8ed8de" y="391.397521"/>
      </g>
     </g>
    </g>
    <g id="ytick_12">
     <g id="line2d_32">
      <g>
       <use style="stroke:#000000;stroke-width:0.6;" x="90" xlink:href="#m6e9f8ed8de" y="349.76654"/>
      </g>
     </g>
    </g>
    <g id="ytick_13">
     <g id="line2d_33">
      <g>
       <use style="stroke:#000000;stroke-width:0.6;" x="90" xlink:href="#m6e9f8ed8de" y="320.22889"/>
      </g>
     </g>
    </g>
    <g id="ytick_14">
     <g id="line2d_34">
      <g>
       <use style="stroke:#000000;stroke-width:0.6;" x="90" xlink:href="#m6e9f8ed8de" y="297.317708"/>
      </g>
     </g>
    </g>
    <g id="ytick_15">
     <g id="line2d_35">
      <g>
       <use style="stroke:#000000;stroke-width:0.6;" x="90" xlink:href="#m6e9f8ed8de" y="278.597909"/>
      </g>
     </g>
    </g>
    <g id="ytick_16">
     <g id="line2d_36">
      <g>
       <use style="stroke:#000000;stroke-width:0.6;" x="90" xlink:href="#m6e9f8ed8de" y="262.770545"/>
      </g>
     </g>
    </g>
    <g id="ytick_17">
     <g id="line2d_37">
      <g>
       <use style="stroke:#000000;stroke-width:0.6;" x="90" xlink:href="#m6e9f8ed8de" y="249.060258"/>
      </g>
     </g>
    </g>
    <g id="ytick_18">
     <g id="line2d_38">
      <g>
       <use style="stroke:#000000;stroke-width:0.6;" x="90" xlink:href="#m6e9f8ed8de" y="236.966929"/>
      </g>
     </g>
    </g>
    <g id="ytick_19">
     <g id="line2d_39">
      <g>
       <use style="stroke:#000000;stroke-width:0.6;" x="90" xlink:href="#m6e9f8ed8de" y="154.980445"/>
      </g>
     </g>
    </g>
    <g id="ytick_20">
     <g id="line2d_40">
      <g>
       <use style="stroke:#000000;stroke-width:0.6;" x="90" xlink:href="#m6e9f8ed8de" y="113.349465"/>
      </g>
     </g>
    </g>
    <g id="text_13">
     <!-- Erro -->
     <defs>
      <path d="M 9.8125 72.90625 
L 55.90625 72.90625 
L 55.90625 64.59375 
L 19.671875 64.59375 
L 19.671875 43.015625 
L 54.390625 43.015625 
L 54.390625 34.71875 
L 19.671875 34.71875 
L 19.671875 8.296875 
L 56.78125 8.296875 
L 56.78125 0 
L 9.8125 0 
z
" id="DejaVuSans-69"/>
      <path d="M 30.609375 48.390625 
Q 23.390625 48.390625 19.1875 42.75 
Q 14.984375 37.109375 14.984375 27.296875 
Q 14.984375 17.484375 19.15625 11.84375 
Q 23.34375 6.203125 30.609375 6.203125 
Q 37.796875 6.203125 41.984375 11.859375 
Q 46.1875 17.53125 46.1875 27.296875 
Q 46.1875 37.015625 41.984375 42.703125 
Q 37.796875 48.390625 30.609375 48.390625 
z
M 30.609375 56 
Q 42.328125 56 49.015625 48.375 
Q 55.71875 40.765625 55.71875 27.296875 
Q 55.71875 13.875 49.015625 6.21875 
Q 42.328125 -1.421875 30.609375 -1.421875 
Q 18.84375 -1.421875 12.171875 6.21875 
Q 5.515625 13.875 5.515625 27.296875 
Q 5.515625 40.765625 12.171875 48.375 
Q 18.84375 56 30.609375 56 
z
" id="DejaVuSans-111"/>
     </defs>
     <g transform="translate(53.420313 373.927344)rotate(-90)scale(0.1 -0.1)">
      <use xlink:href="#DejaVuSans-69"/>
      <use x="63.183594" xlink:href="#DejaVuSans-114"/>
      <use x="104.28125" xlink:href="#DejaVuSans-114"/>
      <use x="145.363281" xlink:href="#DejaVuSans-111"/>
     </g>
    </g>
   </g>
   <g id="line2d_41">
    <path clip-path="url(#p0b34b1688d)" d="M 115.363636 138.078962 
L 117.912746 193.859839 
L 120.461855 211.752621 
L 123.010964 224.657214 
L 125.560073 232.563439 
L 128.109182 237.013026 
L 130.658291 240.074132 
L 133.207401 242.352871 
L 135.75651 244.017758 
L 138.305619 245.819402 
L 143.403837 248.390436 
L 148.502056 250.377468 
L 153.600274 251.727782 
L 156.149383 252.48266 
L 161.247602 253.376035 
L 163.796711 254.130097 
L 166.34582 254.287088 
L 171.444038 255.381103 
L 176.542257 256.048789 
L 179.091366 256.232006 
L 184.189584 257.018064 
L 186.738693 256.976566 
L 189.287803 257.153087 
L 191.836912 257.707766 
L 194.386021 258.109017 
L 199.484239 258.567304 
L 202.033349 258.435176 
L 204.582458 258.944497 
L 207.131567 258.808494 
L 209.680676 258.962121 
L 212.229785 259.498799 
L 214.778894 259.400047 
L 217.328004 259.848607 
L 219.877113 259.871619 
L 237.720877 260.877482 
L 240.269986 260.791384 
L 242.819095 261.111868 
L 250.466423 261.527155 
L 260.66286 261.873178 
L 263.211969 262.200335 
L 275.957515 262.750275 
L 278.506624 262.611711 
L 281.055733 262.879589 
L 283.604842 262.832158 
L 288.703061 263.043084 
L 296.350388 263.456861 
L 311.645043 263.883861 
L 314.194153 264.236151 
L 316.743262 264.107011 
L 324.390589 264.235467 
L 326.939698 263.988077 
L 329.488808 264.638003 
L 332.037917 264.357139 
L 334.587026 264.65071 
L 337.136135 264.260392 
L 339.685244 264.755232 
L 342.234354 264.869867 
L 347.332572 264.715451 
L 349.881681 265.161754 
L 352.43079 265.049152 
L 354.979899 265.132156 
L 357.529009 264.946911 
L 365.176336 265.330212 
L 367.725445 265.311659 
L 370.274555 265.46329 
L 372.823664 265.395708 
L 375.372773 265.20767 
L 377.921882 265.493193 
L 383.020101 265.604535 
L 385.56921 265.857441 
L 388.118319 265.719501 
L 390.667428 265.833463 
L 393.216537 265.778804 
L 395.765646 266.011372 
L 411.060302 266.244895 
L 413.609411 265.917531 
L 416.15852 266.282744 
L 418.707629 266.386081 
L 421.256738 266.265318 
L 423.805847 266.645442 
L 426.354957 266.426324 
L 428.904066 266.587579 
L 431.453175 266.445128 
L 434.002284 266.577016 
L 436.551393 266.436908 
L 439.100503 266.718389 
L 444.198721 266.612845 
L 446.74783 266.842356 
L 449.296939 266.64539 
L 451.846048 266.933228 
L 454.395158 266.566664 
L 456.944267 266.976741 
L 459.493376 267.047817 
L 462.042485 266.97601 
L 464.591594 267.09689 
L 467.140704 266.921308 
L 469.689813 267.111129 
L 474.788031 267.088892 
L 477.33714 267.409167 
L 479.886249 267.422195 
L 482.435359 267.215038 
L 484.984468 267.163732 
L 487.533577 267.352846 
L 490.082686 267.213286 
L 495.180905 267.280973 
L 505.377341 267.684495 
L 507.92645 267.381929 
L 510.47556 267.575566 
L 513.024669 267.348449 
L 515.573778 267.802703 
L 518.122887 267.41698 
L 520.671996 267.569237 
L 523.221106 267.833127 
L 525.770215 267.686809 
L 528.319324 267.867941 
L 530.868433 267.727106 
L 535.966651 267.92772 
L 538.515761 267.719799 
L 541.06487 268.131588 
L 546.163088 267.766118 
L 551.261307 268.122974 
L 553.810416 268.135832 
L 556.359525 267.991722 
L 558.908634 268.207919 
L 561.457743 268.209637 
L 566.555962 267.998792 
L 569.105071 268.246924 
L 571.65418 267.94095 
L 574.203289 268.009311 
L 576.752398 268.355256 
L 579.301508 268.338433 
L 581.850617 268.198201 
L 592.047053 268.236144 
L 597.145272 268.57001 
L 602.24349 268.294635 
L 604.792599 268.56091 
L 607.341709 268.559794 
L 609.890818 268.207229 
L 612.439927 268.551195 
L 617.538145 268.530061 
L 620.087254 268.238415 
L 622.636364 268.494695 
L 622.636364 268.494695 
" style="fill:none;stroke:#1f77b4;stroke-linecap:square;stroke-width:1.5;"/>
   </g>
   <g id="line2d_42">
    <path clip-path="url(#p0b34b1688d)" d="M 115.363636 194.815626 
L 117.912746 241.691806 
L 120.461855 252.809644 
L 123.010964 260.029208 
L 125.560073 265.289743 
L 128.109182 269.583302 
L 130.658291 273.186772 
L 135.75651 279.215537 
L 140.854728 284.339999 
L 143.403837 287.100466 
L 145.952947 287.865137 
L 148.502056 290.824311 
L 151.051165 292.588292 
L 153.600274 294.091464 
L 156.149383 295.733082 
L 158.698492 298.063121 
L 161.247602 298.919888 
L 166.34582 303.310104 
L 168.894929 304.39017 
L 173.993148 307.325302 
L 176.542257 309.16959 
L 179.091366 309.836027 
L 181.640475 311.485406 
L 184.189584 312.899498 
L 186.738693 313.799369 
L 189.287803 315.937297 
L 191.836912 316.830493 
L 194.386021 318.177303 
L 196.93513 319.082529 
L 199.484239 319.855585 
L 202.033349 321.816093 
L 204.582458 321.755186 
L 207.131567 324.192385 
L 212.229785 325.58682 
L 214.778894 326.787761 
L 217.328004 327.085896 
L 219.877113 329.028841 
L 222.426222 330.791937 
L 224.975331 331.504463 
L 227.52444 332.849108 
L 230.07355 333.759837 
L 232.622659 334.37701 
L 235.171768 334.873624 
L 237.720877 336.531314 
L 240.269986 337.934644 
L 242.819095 338.903063 
L 245.368205 339.326816 
L 247.917314 340.373252 
L 250.466423 341.631679 
L 253.015532 342.62408 
L 255.564641 342.480578 
L 258.113751 344.890207 
L 260.66286 345.086461 
L 263.211969 345.693184 
L 265.761078 346.96661 
L 268.310187 348.647982 
L 270.859296 348.982153 
L 273.408406 350.394157 
L 275.957515 350.046419 
L 278.506624 351.38389 
L 281.055733 351.615485 
L 286.153952 354.417239 
L 288.703061 354.788813 
L 291.25217 355.434191 
L 293.801279 357.913684 
L 296.350388 357.025223 
L 298.899497 356.913783 
L 301.448607 358.744266 
L 303.997716 361.966516 
L 306.546825 360.662383 
L 309.095934 362.231243 
L 311.645043 364.652371 
L 314.194153 362.294648 
L 316.743262 364.526838 
L 319.292371 364.810351 
L 321.84148 365.826438 
L 324.390589 367.23915 
L 326.939698 367.837857 
L 329.488808 369.588569 
L 332.037917 369.316277 
L 334.587026 369.723372 
L 337.136135 371.416265 
L 339.685244 371.180787 
L 342.234354 373.380608 
L 344.783463 373.82281 
L 349.881681 373.621308 
L 352.43079 374.273994 
L 354.979899 376.528639 
L 357.529009 378.189888 
L 360.078118 377.048189 
L 362.627227 379.559603 
L 365.176336 377.685239 
L 367.725445 381.283982 
L 370.274555 380.631616 
L 372.823664 379.743083 
L 375.372773 382.004416 
L 377.921882 383.250679 
L 380.470991 384.656369 
L 383.020101 384.852823 
L 385.56921 385.943944 
L 388.118319 383.581672 
L 390.667428 387.485604 
L 393.216537 385.647658 
L 395.765646 388.925413 
L 398.314756 389.175174 
L 400.863865 388.920111 
L 403.412974 388.433981 
L 405.962083 392.114511 
L 408.511192 391.448881 
L 411.060302 392.770799 
L 413.609411 392.042476 
L 416.15852 392.332822 
L 418.707629 394.630469 
L 421.256738 395.360862 
L 423.805847 393.423958 
L 426.354957 397.34771 
L 428.904066 397.117555 
L 431.453175 397.314602 
L 434.002284 399.376434 
L 436.551393 400.836602 
L 439.100503 400.444087 
L 441.649612 396.486805 
L 444.198721 400.920055 
L 446.74783 403.10472 
L 449.296939 401.895794 
L 451.846048 400.869369 
L 454.395158 404.75723 
L 456.944267 405.042809 
L 459.493376 405.15438 
L 462.042485 407.465178 
L 464.591594 408.016011 
L 467.140704 407.607684 
L 469.689813 409.155852 
L 472.238922 405.576379 
L 474.788031 409.381755 
L 477.33714 408.659125 
L 479.886249 412.790023 
L 482.435359 411.922673 
L 484.984468 412.805369 
L 487.533577 414.158132 
L 490.082686 412.076673 
L 492.631795 415.335776 
L 497.730014 412.646706 
L 500.279123 416.415663 
L 502.828232 417.41653 
L 505.377341 414.951523 
L 507.92645 417.652226 
L 510.47556 419.574858 
L 513.024669 416.790895 
L 515.573778 419.60778 
L 518.122887 419.440261 
L 520.671996 418.481966 
L 523.221106 421.265947 
L 525.770215 423.572186 
L 528.319324 420.468414 
L 530.868433 421.499183 
L 533.417542 423.601223 
L 535.966651 426.868797 
L 538.515761 427.371005 
L 541.06487 419.499616 
L 543.613979 425.687841 
L 546.163088 428.414394 
L 548.712197 426.218417 
L 553.810416 426.801504 
L 556.359525 430.835317 
L 558.908634 428.46676 
L 561.457743 430.159688 
L 564.006852 428.941117 
L 566.555962 431.137335 
L 569.105071 428.819865 
L 571.65418 433.653698 
L 574.203289 432.451728 
L 576.752398 434.270562 
L 579.301508 433.269469 
L 581.850617 431.760599 
L 584.399726 439.021398 
L 586.948835 434.149759 
L 589.497944 438.425258 
L 592.047053 434.377665 
L 594.596163 435.868578 
L 597.145272 441.985948 
L 599.694381 441.967993 
L 602.24349 440.682753 
L 604.792599 440.040576 
L 607.341709 441.401442 
L 609.890818 440.784561 
L 612.439927 443.152696 
L 614.989036 443.69332 
L 617.538145 441.216615 
L 620.087254 439.816494 
L 622.636364 442.355494 
L 622.636364 442.355494 
" style="fill:none;stroke:#ff7f0e;stroke-linecap:square;stroke-width:1.5;"/>
   </g>
   <g id="line2d_43">
    <path clip-path="url(#p0b34b1688d)" d="M 115.363636 202.147937 
L 117.912746 245.710018 
L 120.461855 258.712953 
L 125.560073 272.501974 
L 128.109182 276.832207 
L 130.658291 280.110894 
L 133.207401 284.631932 
L 135.75651 287.640674 
L 138.305619 290.894029 
L 140.854728 292.964583 
L 143.403837 296.151248 
L 145.952947 298.84753 
L 153.600274 305.816684 
L 156.149383 308.537314 
L 158.698492 310.400999 
L 161.247602 313.016623 
L 168.894929 318.62926 
L 171.444038 320.930839 
L 173.993148 322.300065 
L 179.091366 326.688942 
L 181.640475 327.262722 
L 184.189584 328.88941 
L 186.738693 332.247811 
L 189.287803 333.952255 
L 191.836912 335.843787 
L 194.386021 337.51765 
L 196.93513 339.381292 
L 199.484239 340.737205 
L 202.033349 343.371495 
L 207.131567 346.902995 
L 209.680676 348.510744 
L 212.229785 349.52898 
L 214.778894 352.792119 
L 217.328004 353.384245 
L 219.877113 355.552809 
L 224.975331 358.870403 
L 227.52444 360.789395 
L 230.07355 360.605192 
L 232.622659 364.251752 
L 235.171768 365.194179 
L 237.720877 367.602906 
L 240.269986 369.711098 
L 242.819095 369.49381 
L 245.368205 373.090683 
L 247.917314 374.0623 
L 250.466423 374.417206 
L 253.015532 377.925375 
L 255.564641 379.923031 
L 258.113751 381.367462 
L 260.66286 381.195243 
L 263.211969 384.739424 
L 265.761078 383.800714 
L 268.310187 386.678789 
L 270.859296 389.290837 
L 273.408406 389.496184 
L 275.957515 392.752919 
L 278.506624 393.482 
L 281.055733 395.443584 
L 283.604842 397.92733 
L 286.153952 397.3121 
L 288.703061 403.125982 
L 291.25217 401.291772 
L 293.801279 402.460916 
L 296.350388 402.994209 
L 298.899497 407.627747 
L 301.448607 409.203558 
L 303.997716 407.295597 
L 306.546825 410.17772 
L 309.095934 411.891893 
L 311.645043 413.223457 
L 314.194153 420.225078 
L 316.743262 418.106753 
L 319.292371 419.291039 
L 321.84148 419.835393 
L 324.390589 423.043184 
L 326.939698 424.355505 
L 329.488808 424.156965 
L 332.037917 428.410964 
L 334.587026 427.395976 
L 337.136135 428.550169 
L 339.685244 430.665449 
L 342.234354 431.249679 
L 344.783463 435.166197 
L 347.332572 428.203125 
L 352.43079 441.451642 
L 354.979899 437.9866 
L 357.529009 440.732561 
L 360.078118 440.847415 
L 362.627227 442.15024 
L 365.176336 447.223649 
L 367.725445 444.712489 
L 370.274555 450.207917 
L 372.823664 451.026758 
L 375.372773 444.903153 
L 377.921882 451.519802 
L 380.470991 454.288184 
L 383.020101 453.016302 
L 385.56921 460.892654 
L 388.118319 452.934305 
L 390.667428 459.761033 
L 393.216537 459.543345 
L 395.765646 456.767094 
L 400.863865 462.354932 
L 403.412974 463.782393 
L 405.962083 467.094272 
L 408.511192 471.35534 
L 411.060302 473.632138 
L 413.609411 468.484908 
L 416.15852 476.139041 
L 418.707629 470.619065 
L 421.256738 476.743879 
L 423.805847 472.685676 
L 426.354957 480.001262 
L 428.904066 474.988978 
L 431.453175 481.749405 
L 434.002284 486.06104 
L 436.551393 487.765895 
L 439.100503 483.570099 
L 441.649612 487.873224 
L 444.198721 482.630896 
L 446.74783 485.198362 
L 449.296939 479.317393 
L 451.846048 494.537161 
L 454.395158 498.296601 
L 456.944267 490.848879 
L 459.493376 493.924097 
L 462.042485 492.040643 
L 464.591594 497.132264 
L 467.140704 498.24915 
L 469.689813 496.795674 
L 472.238922 492.336714 
L 474.788031 508.289611 
L 477.33714 496.737868 
L 479.886249 497.083825 
L 482.435359 515.702153 
L 484.984468 508.211651 
L 487.533577 505.861194 
L 490.082686 502.704064 
L 492.631795 505.518359 
L 495.180905 510.347214 
L 497.730014 514.312566 
L 500.279123 503.696058 
L 502.828232 524.868436 
L 505.377341 508.867308 
L 507.92645 525.358948 
L 510.47556 508.577467 
L 513.024669 518.466839 
L 515.573778 525.990221 
L 518.122887 524.687788 
L 520.671996 515.097945 
L 523.221106 527.948671 
L 528.319324 525.174753 
L 530.868433 536.288882 
L 533.417542 523.664104 
L 535.966651 496.839748 
L 538.515761 534.345498 
L 541.06487 533.81897 
L 543.613979 547.816897 
L 546.163088 531.493519 
L 548.712197 528.685441 
L 551.261307 527.632992 
L 553.810416 529.642061 
L 556.359525 525.296227 
L 558.908634 549.709311 
L 561.457743 549.553818 
L 564.006852 534.451835 
L 566.555962 534.719354 
L 569.105071 529.221183 
L 571.65418 546.558514 
L 574.203289 543.295097 
L 576.752398 542.736552 
L 579.301508 536.666155 
L 581.850617 565.002582 
L 584.399726 534.744174 
L 586.948835 554.617746 
L 589.497944 546.243246 
L 592.047053 525.201357 
L 594.596163 547.229199 
L 597.145272 564.950636 
L 599.694381 547.837108 
L 602.24349 543.022514 
L 604.792599 534.333435 
L 607.341709 560.329804 
L 609.890818 543.488618 
L 609.890818 543.488618 
" style="fill:none;stroke:#2ca02c;stroke-linecap:square;stroke-width:1.5;"/>
   </g>
   <g id="line2d_44">
    <path clip-path="url(#p0b34b1688d)" d="M 115.363636 111.6 
L 117.912746 186.684454 
L 120.461855 208.823204 
L 123.010964 218.571571 
L 125.560073 224.573153 
L 128.109182 229.043325 
L 130.658291 232.515533 
L 133.207401 235.1836 
L 135.75651 237.344364 
L 138.305619 239.019876 
L 140.854728 240.540245 
L 143.403837 241.871431 
L 145.952947 243.459561 
L 148.502056 244.709785 
L 151.051165 246.281229 
L 153.600274 247.664604 
L 158.698492 250.044159 
L 161.247602 250.600017 
L 163.796711 251.411162 
L 166.34582 252.018986 
L 168.894929 252.838716 
L 171.444038 253.208546 
L 173.993148 253.82013 
L 176.542257 254.20113 
L 179.091366 254.802564 
L 181.640475 254.99025 
L 184.189584 255.694998 
L 186.738693 256.169513 
L 189.287803 256.428846 
L 194.386021 257.279063 
L 202.033349 258.353522 
L 212.229785 259.599654 
L 214.778894 260.148964 
L 217.328004 259.993776 
L 222.426222 260.479104 
L 224.975331 261.029568 
L 230.07355 261.229947 
L 232.622659 261.757393 
L 235.171768 261.992012 
L 242.819095 263.890176 
L 245.368205 264.148983 
L 250.466423 265.041073 
L 253.015532 265.691836 
L 255.564641 265.937876 
L 258.113751 265.826819 
L 260.66286 266.63081 
L 263.211969 267.228919 
L 265.761078 267.702522 
L 270.859296 268.234941 
L 273.408406 268.33966 
L 275.957515 269.015661 
L 278.506624 269.137511 
L 281.055733 269.957188 
L 283.604842 270.16853 
L 286.153952 270.265328 
L 288.703061 270.598626 
L 291.25217 270.563447 
L 293.801279 271.223283 
L 296.350388 271.331216 
L 298.899497 271.927396 
L 303.997716 272.290611 
L 309.095934 273.257455 
L 311.645043 273.133579 
L 316.743262 273.663245 
L 319.292371 273.709271 
L 321.84148 274.115106 
L 326.939698 274.252898 
L 332.037917 275.096175 
L 334.587026 275.268696 
L 337.136135 275.052169 
L 344.783463 275.929829 
L 347.332572 275.80426 
L 349.881681 276.043789 
L 352.43079 276.136735 
L 354.979899 276.635352 
L 357.529009 276.227604 
L 360.078118 276.417667 
L 362.627227 276.861087 
L 367.725445 276.857305 
L 370.274555 277.35242 
L 372.823664 277.328203 
L 377.921882 278.061018 
L 380.470991 277.983525 
L 383.020101 278.164953 
L 385.56921 277.706583 
L 388.118319 278.11924 
L 390.667428 278.079844 
L 393.216537 278.441034 
L 395.765646 278.360711 
L 398.314756 278.718923 
L 400.863865 278.872477 
L 403.412974 278.904402 
L 405.962083 278.802034 
L 411.060302 279.245841 
L 413.609411 279.049861 
L 416.15852 279.591345 
L 418.707629 279.640206 
L 421.256738 279.272623 
L 423.805847 279.738005 
L 426.354957 279.984336 
L 431.453175 279.995894 
L 434.002284 280.255781 
L 436.551393 280.343098 
L 439.100503 280.028581 
L 441.649612 280.391522 
L 444.198721 280.515469 
L 446.74783 280.153675 
L 449.296939 280.808669 
L 456.944267 281.090692 
L 459.493376 281.156244 
L 462.042485 281.055281 
L 464.591594 281.389114 
L 467.140704 281.523725 
L 469.689813 281.281194 
L 472.238922 281.728443 
L 474.788031 281.674265 
L 477.33714 281.417164 
L 479.886249 282.133449 
L 482.435359 281.893232 
L 484.984468 282.308549 
L 487.533577 281.884517 
L 490.082686 282.349595 
L 492.631795 282.152891 
L 495.180905 282.308702 
L 497.730014 282.811575 
L 500.279123 282.034616 
L 505.377341 282.636008 
L 507.92645 282.746027 
L 510.47556 282.717707 
L 513.024669 282.99289 
L 515.573778 283.009627 
L 518.122887 282.644198 
L 523.221106 283.286961 
L 525.770215 282.852043 
L 528.319324 283.026558 
L 530.868433 283.443402 
L 533.417542 283.079791 
L 535.966651 283.375653 
L 538.515761 283.536406 
L 541.06487 283.385494 
L 546.163088 283.494852 
L 551.261307 284.058708 
L 553.810416 283.547923 
L 558.908634 283.735256 
L 561.457743 284.289131 
L 566.555962 283.513915 
L 569.105071 284.177865 
L 571.65418 284.165008 
L 574.203289 284.693362 
L 576.752398 284.735398 
L 579.301508 283.538851 
L 584.399726 284.67311 
L 586.948835 284.175162 
L 589.497944 284.891062 
L 594.596163 284.617511 
L 597.145272 284.977639 
L 599.694381 284.742006 
L 602.24349 285.008547 
L 604.792599 285.442484 
L 607.341709 285.296411 
L 609.890818 285.460917 
L 614.989036 284.935602 
L 622.636364 285.552508 
L 622.636364 285.552508 
" style="fill:none;stroke:#d62728;stroke-linecap:square;stroke-width:1.5;"/>
   </g>
   <g id="line2d_45">
    <path clip-path="url(#p0b34b1688d)" d="M 115.363636 156.981016 
L 117.912746 222.342318 
L 120.461855 239.921474 
L 123.010964 247.661587 
L 125.560073 253.01722 
L 128.109182 256.359362 
L 130.658291 258.345293 
L 133.207401 260.705442 
L 135.75651 262.465787 
L 138.305619 263.780611 
L 140.854728 265.595385 
L 143.403837 266.829977 
L 145.952947 267.845542 
L 151.051165 269.407353 
L 153.600274 270.694648 
L 156.149383 271.419734 
L 158.698492 272.396408 
L 161.247602 273.049976 
L 163.796711 273.404588 
L 166.34582 274.372971 
L 173.993148 276.059504 
L 176.542257 276.262871 
L 179.091366 277.207109 
L 181.640475 277.474404 
L 184.189584 277.97607 
L 186.738693 278.054687 
L 189.287803 278.656634 
L 194.386021 279.581908 
L 196.93513 280.031773 
L 199.484239 280.213639 
L 202.033349 280.953404 
L 204.582458 280.901827 
L 207.131567 281.510558 
L 209.680676 281.838835 
L 212.229785 282.581024 
L 214.778894 282.282445 
L 217.328004 283.086076 
L 219.877113 282.966218 
L 222.426222 283.029668 
L 224.975331 284.065555 
L 227.52444 283.587362 
L 230.07355 284.469904 
L 232.622659 284.261153 
L 235.171768 284.31862 
L 237.720877 284.63019 
L 240.269986 285.462317 
L 242.819095 285.591499 
L 245.368205 285.49144 
L 247.917314 285.733429 
L 250.466423 285.823973 
L 255.564641 286.368409 
L 258.113751 286.800657 
L 260.66286 286.836745 
L 263.211969 287.019617 
L 268.310187 287.619507 
L 270.859296 288.134464 
L 273.408406 288.178955 
L 275.957515 287.860901 
L 278.506624 288.759355 
L 281.055733 287.670708 
L 283.604842 288.441564 
L 286.153952 288.798215 
L 288.703061 288.805956 
L 291.25217 289.520157 
L 296.350388 289.218208 
L 298.899497 289.925353 
L 303.997716 290.149098 
L 306.546825 289.925708 
L 309.095934 290.557861 
L 311.645043 290.429192 
L 314.194153 290.645231 
L 316.743262 291.030868 
L 319.292371 291.269472 
L 321.84148 291.267668 
L 324.390589 290.916232 
L 326.939698 290.968734 
L 332.037917 291.613615 
L 337.136135 291.722831 
L 339.685244 292.424509 
L 342.234354 292.726414 
L 344.783463 291.803654 
L 347.332572 291.97899 
L 349.881681 292.393112 
L 352.43079 293.109253 
L 354.979899 293.088333 
L 357.529009 293.236642 
L 360.078118 292.41694 
L 365.176336 293.475916 
L 370.274555 293.473887 
L 372.823664 294.046411 
L 375.372773 294.000038 
L 377.921882 293.585917 
L 380.470991 294.637173 
L 383.020101 294.345407 
L 385.56921 293.59545 
L 388.118319 294.349557 
L 390.667428 294.939075 
L 393.216537 294.459499 
L 395.765646 294.763585 
L 400.863865 294.951018 
L 403.412974 294.70257 
L 405.962083 294.6687 
L 408.511192 295.09507 
L 413.609411 295.417433 
L 416.15852 295.73303 
L 418.707629 295.469804 
L 421.256738 295.509437 
L 423.805847 295.816801 
L 428.904066 295.54254 
L 431.453175 296.486114 
L 434.002284 296.564498 
L 436.551393 296.163424 
L 439.100503 296.68027 
L 444.198721 296.587858 
L 446.74783 296.299815 
L 449.296939 297.12303 
L 451.846048 296.313257 
L 454.395158 297.465479 
L 456.944267 297.208623 
L 459.493376 297.22461 
L 462.042485 297.009242 
L 467.140704 297.370496 
L 469.689813 297.963178 
L 472.238922 297.158843 
L 474.788031 297.238098 
L 477.33714 296.8767 
L 479.886249 297.578827 
L 482.435359 297.535154 
L 484.984468 298.026852 
L 487.533577 298.026956 
L 492.631795 298.369124 
L 495.180905 297.919742 
L 497.730014 298.269617 
L 500.279123 298.461769 
L 502.828232 298.093498 
L 505.377341 298.393288 
L 507.92645 298.807421 
L 510.47556 297.908694 
L 513.024669 299.207131 
L 515.573778 298.89101 
L 518.122887 299.074467 
L 520.671996 298.897462 
L 523.221106 299.454127 
L 525.770215 298.621069 
L 528.319324 299.26744 
L 530.868433 299.725125 
L 533.417542 299.666116 
L 535.966651 298.936114 
L 538.515761 299.273997 
L 541.06487 299.921328 
L 543.613979 300.305959 
L 546.163088 299.725543 
L 548.712197 299.582637 
L 553.810416 299.910284 
L 556.359525 300.086033 
L 558.908634 299.87472 
L 561.457743 300.259955 
L 564.006852 299.31578 
L 566.555962 300.604804 
L 569.105071 300.670936 
L 571.65418 300.376519 
L 574.203289 300.468466 
L 576.752398 300.679926 
L 579.301508 300.01954 
L 584.399726 300.700102 
L 589.497944 300.418222 
L 592.047053 300.682145 
L 594.596163 300.624601 
L 602.24349 301.551905 
L 604.792599 300.590211 
L 607.341709 301.697027 
L 609.890818 301.28779 
L 612.439927 301.234016 
L 614.989036 300.472218 
L 617.538145 301.652103 
L 620.087254 300.85289 
L 622.636364 301.801668 
L 622.636364 301.801668 
" style="fill:none;stroke:#9467bd;stroke-linecap:square;stroke-width:1.5;"/>
   </g>
   <g id="line2d_46">
    <path clip-path="url(#p0b34b1688d)" d="M 115.363636 149.722868 
L 117.912746 227.581511 
L 120.461855 241.793658 
L 123.010964 251.393313 
L 128.109182 263.387042 
L 130.658291 268.097607 
L 133.207401 271.926429 
L 135.75651 275.341031 
L 138.305619 277.986215 
L 143.403837 283.982101 
L 145.952947 286.230131 
L 148.502056 288.844093 
L 151.051165 290.406006 
L 153.600274 292.719339 
L 156.149383 294.502756 
L 158.698492 295.748416 
L 161.247602 297.185296 
L 163.796711 299.827513 
L 166.34582 301.488197 
L 168.894929 302.438356 
L 171.444038 304.663062 
L 173.993148 306.488982 
L 176.542257 307.518727 
L 179.091366 308.725305 
L 181.640475 309.58001 
L 184.189584 312.282073 
L 186.738693 312.845436 
L 189.287803 313.692402 
L 191.836912 315.338836 
L 194.386021 317.308055 
L 196.93513 317.997342 
L 199.484239 319.426158 
L 202.033349 319.748668 
L 204.582458 320.793729 
L 207.131567 323.001354 
L 209.680676 323.92769 
L 212.229785 324.046363 
L 214.778894 325.913739 
L 217.328004 328.019349 
L 219.877113 328.312985 
L 222.426222 330.067515 
L 224.975331 330.736518 
L 227.52444 331.548806 
L 232.622659 333.790816 
L 235.171768 333.817081 
L 237.720877 335.949062 
L 240.269986 337.523278 
L 242.819095 337.479028 
L 245.368205 339.478624 
L 247.917314 340.832628 
L 250.466423 341.164974 
L 253.015532 341.148599 
L 255.564641 342.36273 
L 258.113751 344.571801 
L 260.66286 346.416876 
L 263.211969 347.225887 
L 265.761078 347.60876 
L 268.310187 350.087046 
L 270.859296 351.155293 
L 273.408406 350.851538 
L 278.506624 353.548268 
L 281.055733 353.133245 
L 283.604842 354.15757 
L 286.153952 356.85664 
L 288.703061 355.676802 
L 291.25217 358.166852 
L 293.801279 357.835624 
L 296.350388 359.314943 
L 298.899497 359.205468 
L 301.448607 361.543715 
L 303.997716 359.858099 
L 309.095934 367.420058 
L 311.645043 363.376021 
L 314.194153 366.692829 
L 316.743262 367.721794 
L 319.292371 369.528688 
L 321.84148 364.66284 
L 324.390589 368.807312 
L 326.939698 371.102202 
L 332.037917 373.421054 
L 334.587026 374.325241 
L 337.136135 373.012323 
L 339.685244 375.628264 
L 342.234354 377.550225 
L 344.783463 378.361055 
L 347.332572 375.520482 
L 349.881681 377.436146 
L 352.43079 380.917266 
L 354.979899 382.292882 
L 357.529009 383.314495 
L 360.078118 381.581126 
L 362.627227 384.967081 
L 365.176336 385.38595 
L 367.725445 382.640127 
L 370.274555 387.018933 
L 372.823664 385.886468 
L 375.372773 388.384854 
L 377.921882 389.564074 
L 380.470991 386.9024 
L 383.020101 389.083094 
L 385.56921 391.910928 
L 388.118319 391.367698 
L 390.667428 390.227475 
L 393.216537 387.277621 
L 395.765646 392.009232 
L 398.314756 395.073362 
L 400.863865 397.681857 
L 403.412974 397.749851 
L 405.962083 397.391604 
L 408.511192 396.820853 
L 411.060302 399.459102 
L 413.609411 399.677759 
L 416.15852 401.244144 
L 418.707629 403.183352 
L 421.256738 400.071433 
L 423.805847 404.673744 
L 426.354957 396.514844 
L 428.904066 403.360898 
L 431.453175 406.061802 
L 434.002284 405.783159 
L 436.551393 407.340054 
L 439.100503 405.943279 
L 441.649612 406.460704 
L 444.198721 406.272434 
L 446.74783 409.473152 
L 449.296939 410.436402 
L 451.846048 409.863401 
L 454.395158 409.734628 
L 456.944267 414.546825 
L 459.493376 410.466557 
L 462.042485 415.130208 
L 464.591594 418.807587 
L 467.140704 416.301209 
L 469.689813 417.393442 
L 472.238922 414.611513 
L 474.788031 417.201049 
L 477.33714 419.303434 
L 479.886249 416.822055 
L 482.435359 421.860112 
L 484.984468 414.58971 
L 487.533577 421.907725 
L 490.082686 418.187872 
L 492.631795 424.935665 
L 495.180905 422.496195 
L 497.730014 422.512396 
L 500.279123 424.694016 
L 502.828232 424.921183 
L 505.377341 429.448221 
L 507.92645 431.131 
L 510.47556 422.762406 
L 513.024669 425.838657 
L 515.573778 424.196194 
L 518.122887 431.324057 
L 520.671996 425.573369 
L 523.221106 436.926303 
L 525.770215 430.002686 
L 528.319324 434.463785 
L 530.868433 425.388138 
L 533.417542 430.389758 
L 535.966651 441.482174 
L 538.515761 437.593127 
L 541.06487 425.822023 
L 543.613979 438.430542 
L 546.163088 435.255224 
L 548.712197 443.004893 
L 551.261307 441.792895 
L 553.810416 445.315192 
L 556.359525 443.914218 
L 558.908634 433.400345 
L 561.457743 435.003381 
L 564.006852 439.965377 
L 566.555962 436.530913 
L 569.105071 440.266891 
L 571.65418 437.533288 
L 574.203289 449.892252 
L 576.752398 437.207075 
L 581.850617 452.286391 
L 584.399726 445.845628 
L 586.948835 443.671417 
L 589.497944 446.105089 
L 592.047053 437.515821 
L 594.596163 441.806751 
L 597.145272 455.073561 
L 599.694381 462.436812 
L 602.24349 447.865545 
L 604.792599 450.892849 
L 607.341709 449.630513 
L 609.890818 439.590191 
L 612.439927 449.267209 
L 614.989036 447.941498 
L 617.538145 453.872686 
L 620.087254 453.710099 
L 622.636364 458.474318 
L 622.636364 458.474318 
" style="fill:none;stroke:#8c564b;stroke-linecap:square;stroke-width:1.5;"/>
   </g>
   <g id="line2d_47">
    <path clip-path="url(#p0b34b1688d)" d="M 115.363636 196.498012 
L 117.912746 249.974902 
L 120.461855 261.850066 
L 123.010964 269.139593 
L 125.560073 275.611506 
L 128.109182 279.708761 
L 130.658291 284.089017 
L 133.207401 287.631783 
L 135.75651 290.758085 
L 138.305619 294.077034 
L 140.854728 296.746741 
L 143.403837 299.707516 
L 145.952947 301.627642 
L 148.502056 304.271478 
L 151.051165 307.12351 
L 153.600274 308.924866 
L 156.149383 311.554157 
L 158.698492 313.214274 
L 161.247602 316.18534 
L 163.796711 317.14577 
L 166.34582 320.679389 
L 168.894929 321.803935 
L 171.444038 324.370923 
L 173.993148 325.890871 
L 176.542257 328.250763 
L 179.091366 329.432022 
L 181.640475 332.816009 
L 184.189584 332.114884 
L 186.738693 337.166214 
L 189.287803 336.517671 
L 191.836912 338.88782 
L 194.386021 341.872945 
L 196.93513 342.160488 
L 199.484239 345.417239 
L 202.033349 347.392369 
L 204.582458 347.784381 
L 207.131567 350.67725 
L 209.680676 352.913809 
L 212.229785 352.852884 
L 214.778894 354.690731 
L 217.328004 357.011566 
L 219.877113 359.105326 
L 222.426222 360.251131 
L 224.975331 361.156394 
L 230.07355 365.340022 
L 232.622659 365.019874 
L 235.171768 367.173956 
L 237.720877 373.96178 
L 240.269986 373.078301 
L 242.819095 371.568213 
L 245.368205 374.048208 
L 247.917314 378.705789 
L 250.466423 375.447985 
L 253.015532 380.447184 
L 255.564641 384.227174 
L 258.113751 380.946979 
L 260.66286 387.920554 
L 263.211969 388.486459 
L 265.761078 388.092201 
L 268.310187 390.532919 
L 270.859296 392.481958 
L 273.408406 390.513627 
L 275.957515 395.719491 
L 278.506624 393.889098 
L 281.055733 397.543531 
L 283.604842 400.485741 
L 286.153952 402.196272 
L 288.703061 401.468112 
L 291.25217 405.151809 
L 293.801279 401.381265 
L 296.350388 405.021421 
L 298.899497 407.340432 
L 301.448607 410.621377 
L 303.997716 415.134167 
L 306.546825 409.987125 
L 309.095934 414.334747 
L 311.645043 414.559857 
L 314.194153 412.33188 
L 316.743262 420.360988 
L 319.292371 418.20636 
L 321.84148 418.1062 
L 324.390589 420.41498 
L 326.939698 424.774905 
L 329.488808 423.636811 
L 332.037917 423.117706 
L 334.587026 433.00328 
L 337.136135 429.99269 
L 339.685244 431.331495 
L 342.234354 426.404258 
L 344.783463 432.750873 
L 347.332572 433.087454 
L 349.881681 429.29283 
L 352.43079 431.382202 
L 354.979899 441.116844 
L 357.529009 441.078533 
L 360.078118 443.735756 
L 362.627227 443.970742 
L 365.176336 437.642103 
L 367.725445 446.473243 
L 370.274555 439.463337 
L 372.823664 445.317128 
L 375.372773 450.194855 
L 377.921882 450.161202 
L 380.470991 453.064522 
L 383.020101 458.152756 
L 385.56921 448.120766 
L 388.118319 451.827626 
L 390.667428 458.122142 
L 393.216537 451.242134 
L 395.765646 460.200084 
L 398.314756 457.468798 
L 400.863865 455.423682 
L 403.412974 454.141763 
L 405.962083 461.836404 
L 408.511192 467.547762 
L 411.060302 467.572544 
L 413.609411 473.880975 
L 416.15852 458.729749 
L 418.707629 463.429694 
L 421.256738 477.502353 
L 423.805847 476.088242 
L 426.354957 459.334685 
L 428.904066 480.058064 
L 431.453175 464.235796 
L 434.002284 486.033254 
L 436.551393 475.084473 
L 439.100503 469.106444 
L 441.649612 465.169156 
L 444.198721 483.480062 
L 446.74783 481.27584 
L 449.296939 472.092618 
L 451.846048 491.668606 
L 454.395158 482.984661 
L 456.944267 475.067239 
L 459.493376 464.574631 
L 462.042485 492.377625 
L 464.591594 479.518741 
L 467.140704 495.588895 
L 469.689813 501.309563 
L 472.238922 491.433396 
L 474.788031 495.672304 
L 477.33714 506.812348 
L 479.886249 461.463587 
L 482.435359 491.920972 
L 484.984468 508.977824 
L 487.533577 485.619187 
L 490.082686 503.241524 
L 492.631795 471.596831 
L 495.180905 501.772586 
L 497.730014 519.580564 
L 500.279123 491.912418 
L 502.828232 488.701846 
L 505.377341 507.711464 
L 507.92645 484.034443 
L 510.47556 506.848991 
L 513.024669 524.565904 
L 515.573778 492.921134 
L 518.122887 491.893139 
L 520.671996 504.749481 
L 523.221106 492.770845 
L 525.770215 503.350207 
L 528.319324 518.745617 
L 530.868433 543.240568 
L 533.417542 497.645991 
L 535.966651 514.394739 
L 538.515761 496.937295 
L 541.06487 506.448852 
L 543.613979 527.560087 
L 546.163088 532.78361 
L 548.712197 490.669456 
L 551.261307 503.960038 
L 553.810416 537.446536 
L 556.359525 516.637992 
L 558.908634 500.345548 
L 558.908634 500.345548 
" style="fill:none;stroke:#e377c2;stroke-linecap:square;stroke-width:1.5;"/>
   </g>
   <g id="line2d_48">
    <path clip-path="url(#p0b34b1688d)" d="M 115.363636 205.801574 
L 117.912746 257.183143 
L 120.461855 268.227302 
L 123.010964 276.837316 
L 128.109182 287.297425 
L 130.658291 291.757223 
L 133.207401 295.799034 
L 135.75651 299.312901 
L 138.305619 303.484722 
L 140.854728 307.263871 
L 143.403837 309.127304 
L 145.952947 312.89717 
L 151.051165 317.773226 
L 153.600274 322.555301 
L 156.149383 325.703415 
L 158.698492 327.097219 
L 161.247602 331.8201 
L 163.796711 332.989372 
L 166.34582 336.925013 
L 168.894929 337.007405 
L 171.444038 341.113491 
L 173.993148 344.29219 
L 176.542257 346.746555 
L 179.091366 350.674035 
L 181.640475 352.878027 
L 184.189584 353.911542 
L 186.738693 358.651999 
L 189.287803 359.03826 
L 191.836912 361.435313 
L 194.386021 365.562736 
L 196.93513 367.334604 
L 199.484239 371.401645 
L 202.033349 374.210992 
L 204.582458 376.117919 
L 207.131567 379.851438 
L 209.680676 380.358556 
L 212.229785 385.112053 
L 214.778894 384.971629 
L 217.328004 388.593755 
L 219.877113 390.13224 
L 222.426222 396.199082 
L 224.975331 397.227544 
L 227.52444 397.621976 
L 230.07355 401.298867 
L 232.622659 405.36461 
L 235.171768 400.596037 
L 237.720877 411.520829 
L 240.269986 411.618132 
L 242.819095 409.399402 
L 245.368205 414.837192 
L 247.917314 422.101626 
L 250.466423 418.453298 
L 253.015532 417.316781 
L 255.564641 425.381562 
L 258.113751 429.072367 
L 260.66286 427.867846 
L 263.211969 435.21852 
L 265.761078 428.120658 
L 268.310187 437.438582 
L 270.859296 433.545605 
L 273.408406 438.778749 
L 275.957515 439.746441 
L 278.506624 442.25632 
L 281.055733 445.099066 
L 283.604842 453.811894 
L 286.153952 448.510709 
L 288.703061 450.31642 
L 291.25217 451.227432 
L 293.801279 451.563921 
L 296.350388 463.61376 
L 298.899497 465.41305 
L 301.448607 455.76785 
L 303.997716 468.328652 
L 306.546825 471.509878 
L 309.095934 469.646167 
L 311.645043 463.010142 
L 314.194153 466.171474 
L 316.743262 463.691336 
L 319.292371 467.41501 
L 321.84148 487.551797 
L 324.390589 479.966517 
L 326.939698 484.310178 
L 329.488808 471.701835 
L 332.037917 480.557017 
L 334.587026 481.587818 
L 337.136135 491.390276 
L 339.685244 479.354784 
L 342.234354 469.43926 
L 344.783463 500.502049 
L 347.332572 491.897634 
L 349.881681 497.425573 
L 352.43079 500.343012 
L 354.979899 498.972977 
L 357.529009 488.047388 
L 360.078118 482.899628 
L 362.627227 492.006363 
L 365.176336 518.469175 
L 367.725445 514.266127 
L 370.274555 494.179408 
L 372.823664 506.727387 
L 375.372773 497.931108 
L 377.921882 503.042837 
L 380.470991 510.035399 
L 383.020101 497.01971 
L 385.56921 513.114901 
L 388.118319 503.370188 
L 390.667428 524.364473 
L 393.216537 524.767882 
L 395.765646 511.334548 
L 398.314756 521.399992 
L 400.863865 526.545337 
L 403.412974 501.006904 
L 405.962083 519.12118 
L 408.511192 528.105096 
L 411.060302 531.812283 
L 413.609411 528.308867 
L 416.15852 523.142571 
L 418.707629 519.471686 
L 421.256738 503.479359 
L 423.805847 532.942001 
L 426.354957 531.926075 
L 428.904066 564.851688 
L 431.453175 510.51979 
L 434.002284 512.888788 
L 436.551393 538.814088 
L 439.100503 533.878279 
L 441.649612 574.752241 
L 444.198721 518.507144 
L 446.74783 532.012305 
L 449.296939 569.848653 
L 451.846048 550.619381 
L 454.395158 496.957659 
L 456.944267 529.941543 
L 459.493376 556.336458 
L 462.042485 567.740384 
L 464.591594 547.805121 
L 467.140704 553.635377 
L 469.689813 495.165289 
L 469.689813 495.165289 
" style="fill:none;stroke:#7f7f7f;stroke-linecap:square;stroke-width:1.5;"/>
   </g>
   <g id="line2d_49">
    <path clip-path="url(#p0b34b1688d)" d="M 115.363636 214.202346 
L 117.912746 260.095077 
L 120.461855 271.970858 
L 123.010964 279.744943 
L 125.560073 286.866478 
L 128.109182 291.946373 
L 130.658291 295.925291 
L 133.207401 300.304135 
L 135.75651 304.256919 
L 138.305619 307.334595 
L 140.854728 310.455512 
L 143.403837 314.215883 
L 145.952947 317.547385 
L 148.502056 321.318964 
L 151.051165 324.163685 
L 153.600274 327.025981 
L 156.149383 329.564484 
L 158.698492 333.26556 
L 161.247602 337.926968 
L 163.796711 338.407948 
L 166.34582 343.655468 
L 168.894929 348.02491 
L 171.444038 350.502277 
L 173.993148 351.981351 
L 176.542257 354.554557 
L 179.091366 359.083629 
L 181.640475 362.531388 
L 184.189584 365.495478 
L 186.738693 367.620852 
L 189.287803 370.529763 
L 191.836912 373.990825 
L 194.386021 376.397903 
L 196.93513 381.491282 
L 199.484239 383.497181 
L 202.033349 386.333811 
L 204.582458 388.456477 
L 207.131567 392.177389 
L 209.680676 395.300116 
L 212.229785 400.599238 
L 214.778894 405.870626 
L 217.328004 404.004855 
L 219.877113 406.919029 
L 222.426222 407.59069 
L 224.975331 414.615008 
L 227.52444 417.217267 
L 230.07355 419.377265 
L 232.622659 426.995651 
L 235.171768 427.050553 
L 237.720877 424.436028 
L 240.269986 427.290937 
L 242.819095 436.634203 
L 245.368205 444.655004 
L 247.917314 436.788045 
L 250.466423 437.323992 
L 253.015532 437.084908 
L 255.564641 432.445495 
L 258.113751 457.026606 
L 260.66286 455.318996 
L 263.211969 456.535516 
L 265.761078 446.332848 
L 268.310187 458.628328 
L 270.859296 463.534034 
L 273.408406 462.784424 
L 275.957515 474.220229 
L 278.506624 474.42848 
L 281.055733 466.261619 
L 283.604842 476.519437 
L 286.153952 483.859343 
L 288.703061 469.596128 
L 291.25217 480.419552 
L 293.801279 481.051029 
L 296.350388 488.263684 
L 298.899497 491.813289 
L 301.448607 481.702174 
L 303.997716 480.125131 
L 306.546825 499.786166 
L 309.095934 508.805901 
L 311.645043 499.216682 
L 314.194153 475.212651 
L 316.743262 494.345346 
L 319.292371 510.657666 
L 321.84148 512.641934 
L 324.390589 521.527708 
L 326.939698 506.094671 
L 329.488808 496.586253 
L 332.037917 519.017681 
L 334.587026 520.658128 
L 337.136135 515.229885 
L 339.685244 503.524823 
L 342.234354 512.357962 
L 344.783463 509.116955 
L 347.332572 516.653292 
L 349.881681 534.113035 
L 352.43079 533.018891 
L 354.979899 532.645069 
L 357.529009 515.597344 
L 360.078118 504.259552 
L 362.627227 552.693953 
L 365.176336 574.88926 
L 367.725445 518.351622 
L 370.274555 494.715797 
L 372.823664 528.657333 
L 375.372773 552.304221 
L 377.921882 575.571679 
L 380.470991 521.66451 
L 383.020101 508.825072 
L 385.56921 570.296307 
L 388.118319 560.785597 
L 390.667428 497.314383 
L 393.216537 524.711219 
L 395.765646 615.6 
L 398.314756 563.396869 
L 400.863865 520.089952 
L 403.412974 532.20869 
L 405.962083 552.980545 
L 408.511192 545.08124 
L 411.060302 569.306755 
L 413.609411 551.160001 
L 416.15852 524.403092 
L 418.707629 572.157173 
L 421.256738 587.388529 
L 423.805847 493.758254 
" style="fill:none;stroke:#bcbd22;stroke-linecap:square;stroke-width:1.5;"/>
   </g>
   <g id="patch_3">
    <path d="M 90 640.8 
L 90 86.4 
" style="fill:none;stroke:#000000;stroke-linecap:square;stroke-linejoin:miter;stroke-width:0.8;"/>
   </g>
   <g id="patch_4">
    <path d="M 648 640.8 
L 648 86.4 
" style="fill:none;stroke:#000000;stroke-linecap:square;stroke-linejoin:miter;stroke-width:0.8;"/>
   </g>
   <g id="patch_5">
    <path d="M 90 640.8 
L 648 640.8 
" style="fill:none;stroke:#000000;stroke-linecap:square;stroke-linejoin:miter;stroke-width:0.8;"/>
   </g>
   <g id="patch_6">
    <path d="M 90 86.4 
L 648 86.4 
" style="fill:none;stroke:#000000;stroke-linecap:square;stroke-linejoin:miter;stroke-width:0.8;"/>
   </g>
   <g id="legend_1">
    <g id="patch_7">
     <path d="M 480.875 241.18125 
L 641 241.18125 
Q 643 241.18125 643 239.18125 
L 643 93.4 
Q 643 91.4 641 91.4 
L 480.875 91.4 
Q 478.875 91.4 478.875 93.4 
L 478.875 239.18125 
Q 478.875 241.18125 480.875 241.18125 
z
" style="fill:#ffffff;opacity:0.8;stroke:#cccccc;stroke-linejoin:miter;"/>
    </g>
    <g id="text_14">
     <!-- Camadas (em nº de neurônios) -->
     <defs>
      <path d="M 64.40625 67.28125 
L 64.40625 56.890625 
Q 59.421875 61.53125 53.78125 63.8125 
Q 48.140625 66.109375 41.796875 66.109375 
Q 29.296875 66.109375 22.65625 58.46875 
Q 16.015625 50.828125 16.015625 36.375 
Q 16.015625 21.96875 22.65625 14.328125 
Q 29.296875 6.6875 41.796875 6.6875 
Q 48.140625 6.6875 53.78125 8.984375 
Q 59.421875 11.28125 64.40625 15.921875 
L 64.40625 5.609375 
Q 59.234375 2.09375 53.4375 0.328125 
Q 47.65625 -1.421875 41.21875 -1.421875 
Q 24.65625 -1.421875 15.125 8.703125 
Q 5.609375 18.84375 5.609375 36.375 
Q 5.609375 53.953125 15.125 64.078125 
Q 24.65625 74.21875 41.21875 74.21875 
Q 47.75 74.21875 53.53125 72.484375 
Q 59.328125 70.75 64.40625 67.28125 
z
" id="DejaVuSans-67"/>
      <path d="M 52 44.1875 
Q 55.375 50.25 60.0625 53.125 
Q 64.75 56 71.09375 56 
Q 79.640625 56 84.28125 50.015625 
Q 88.921875 44.046875 88.921875 33.015625 
L 88.921875 0 
L 79.890625 0 
L 79.890625 32.71875 
Q 79.890625 40.578125 77.09375 44.375 
Q 74.3125 48.1875 68.609375 48.1875 
Q 61.625 48.1875 57.5625 43.546875 
Q 53.515625 38.921875 53.515625 30.90625 
L 53.515625 0 
L 44.484375 0 
L 44.484375 32.71875 
Q 44.484375 40.625 41.703125 44.40625 
Q 38.921875 48.1875 33.109375 48.1875 
Q 26.21875 48.1875 22.15625 43.53125 
Q 18.109375 38.875 18.109375 30.90625 
L 18.109375 0 
L 9.078125 0 
L 9.078125 54.6875 
L 18.109375 54.6875 
L 18.109375 46.1875 
Q 21.1875 51.21875 25.484375 53.609375 
Q 29.78125 56 35.6875 56 
Q 41.65625 56 45.828125 52.96875 
Q 50 49.953125 52 44.1875 
z
" id="DejaVuSans-109"/>
      <path d="M 45.40625 46.390625 
L 45.40625 75.984375 
L 54.390625 75.984375 
L 54.390625 0 
L 45.40625 0 
L 45.40625 8.203125 
Q 42.578125 3.328125 38.25 0.953125 
Q 33.9375 -1.421875 27.875 -1.421875 
Q 17.96875 -1.421875 11.734375 6.484375 
Q 5.515625 14.40625 5.515625 27.296875 
Q 5.515625 40.1875 11.734375 48.09375 
Q 17.96875 56 27.875 56 
Q 33.9375 56 38.25 53.625 
Q 42.578125 51.265625 45.40625 46.390625 
z
M 14.796875 27.296875 
Q 14.796875 17.390625 18.875 11.75 
Q 22.953125 6.109375 30.078125 6.109375 
Q 37.203125 6.109375 41.296875 11.75 
Q 45.40625 17.390625 45.40625 27.296875 
Q 45.40625 37.203125 41.296875 42.84375 
Q 37.203125 48.484375 30.078125 48.484375 
Q 22.953125 48.484375 18.875 42.84375 
Q 14.796875 37.203125 14.796875 27.296875 
z
" id="DejaVuSans-100"/>
      <path id="DejaVuSans-32"/>
      <path d="M 31 75.875 
Q 24.46875 64.65625 21.28125 53.65625 
Q 18.109375 42.671875 18.109375 31.390625 
Q 18.109375 20.125 21.3125 9.0625 
Q 24.515625 -2 31 -13.1875 
L 23.1875 -13.1875 
Q 15.875 -1.703125 12.234375 9.375 
Q 8.59375 20.453125 8.59375 31.390625 
Q 8.59375 42.28125 12.203125 53.3125 
Q 15.828125 64.359375 23.1875 75.875 
z
" id="DejaVuSans-40"/>
      <path d="M 54.890625 33.015625 
L 54.890625 0 
L 45.90625 0 
L 45.90625 32.71875 
Q 45.90625 40.484375 42.875 44.328125 
Q 39.84375 48.1875 33.796875 48.1875 
Q 26.515625 48.1875 22.3125 43.546875 
Q 18.109375 38.921875 18.109375 30.90625 
L 18.109375 0 
L 9.078125 0 
L 9.078125 54.6875 
L 18.109375 54.6875 
L 18.109375 46.1875 
Q 21.34375 51.125 25.703125 53.5625 
Q 30.078125 56 35.796875 56 
Q 45.21875 56 50.046875 50.171875 
Q 54.890625 44.34375 54.890625 33.015625 
z
" id="DejaVuSans-110"/>
      <path d="M 6.78125 28.90625 
L 40.375 28.90625 
L 40.375 22.90625 
L 6.78125 22.90625 
z
M 23.578125 74.21875 
Q 32.328125 74.21875 37.359375 68.8125 
Q 42.390625 63.421875 42.390625 54.109375 
Q 42.390625 44.78125 37.359375 39.421875 
Q 32.328125 34.078125 23.578125 34.078125 
Q 14.84375 34.078125 9.765625 39.453125 
Q 4.6875 44.828125 4.6875 54.109375 
Q 4.6875 63.421875 9.765625 68.8125 
Q 14.84375 74.21875 23.578125 74.21875 
z
M 23.578125 68.609375 
Q 18.453125 68.609375 15.375 64.671875 
Q 12.3125 60.75 12.3125 54.109375 
Q 12.3125 47.609375 15.40625 43.703125 
Q 18.5 39.796875 23.578125 39.796875 
Q 28.71875 39.796875 31.765625 43.703125 
Q 34.8125 47.609375 34.8125 54.109375 
Q 34.8125 60.796875 31.78125 64.703125 
Q 28.765625 68.609375 23.578125 68.609375 
z
" id="DejaVuSans-186"/>
      <path d="M 8.5 21.578125 
L 8.5 54.6875 
L 17.484375 54.6875 
L 17.484375 21.921875 
Q 17.484375 14.15625 20.5 10.265625 
Q 23.53125 6.390625 29.59375 6.390625 
Q 36.859375 6.390625 41.078125 11.03125 
Q 45.3125 15.671875 45.3125 23.6875 
L 45.3125 54.6875 
L 54.296875 54.6875 
L 54.296875 0 
L 45.3125 0 
L 45.3125 8.40625 
Q 42.046875 3.421875 37.71875 1 
Q 33.40625 -1.421875 27.6875 -1.421875 
Q 18.265625 -1.421875 13.375 4.4375 
Q 8.5 10.296875 8.5 21.578125 
z
M 31.109375 56 
z
" id="DejaVuSans-117"/>
      <path d="M 30.609375 48.390625 
Q 23.390625 48.390625 19.1875 42.75 
Q 14.984375 37.109375 14.984375 27.296875 
Q 14.984375 17.484375 19.15625 11.84375 
Q 23.34375 6.203125 30.609375 6.203125 
Q 37.796875 6.203125 41.984375 11.859375 
Q 46.1875 17.53125 46.1875 27.296875 
Q 46.1875 37.015625 41.984375 42.703125 
Q 37.796875 48.390625 30.609375 48.390625 
z
M 30.609375 56 
Q 42.328125 56 49.015625 48.375 
Q 55.71875 40.765625 55.71875 27.296875 
Q 55.71875 13.875 49.015625 6.21875 
Q 42.328125 -1.421875 30.609375 -1.421875 
Q 18.84375 -1.421875 12.171875 6.21875 
Q 5.515625 13.875 5.515625 27.296875 
Q 5.515625 40.765625 12.171875 48.375 
Q 18.84375 56 30.609375 56 
z
M 27.015625 79.984375 
L 34.234375 79.984375 
L 46.203125 61.625 
L 39.421875 61.625 
L 30.625 73.578125 
L 21.84375 61.625 
L 15.046875 61.625 
z
" id="DejaVuSans-244"/>
      <path d="M 9.421875 54.6875 
L 18.40625 54.6875 
L 18.40625 0 
L 9.421875 0 
z
M 9.421875 75.984375 
L 18.40625 75.984375 
L 18.40625 64.59375 
L 9.421875 64.59375 
z
" id="DejaVuSans-105"/>
      <path d="M 8.015625 75.875 
L 15.828125 75.875 
Q 23.140625 64.359375 26.78125 53.3125 
Q 30.421875 42.28125 30.421875 31.390625 
Q 30.421875 20.453125 26.78125 9.375 
Q 23.140625 -1.703125 15.828125 -13.1875 
L 8.015625 -13.1875 
Q 14.5 -2 17.703125 9.0625 
Q 20.90625 20.125 20.90625 31.390625 
Q 20.90625 42.671875 17.703125 53.65625 
Q 14.5 64.65625 8.015625 75.875 
z
" id="DejaVuSans-41"/>
     </defs>
     <g transform="translate(482.875 102.998437)scale(0.1 -0.1)">
      <use xlink:href="#DejaVuSans-67"/>
      <use x="69.824219" xlink:href="#DejaVuSans-97"/>
      <use x="131.103516" xlink:href="#DejaVuSans-109"/>
      <use x="228.515625" xlink:href="#DejaVuSans-97"/>
      <use x="289.794922" xlink:href="#DejaVuSans-100"/>
      <use x="353.271484" xlink:href="#DejaVuSans-97"/>
      <use x="414.550781" xlink:href="#DejaVuSans-115"/>
      <use x="466.650391" xlink:href="#DejaVuSans-32"/>
      <use x="498.4375" xlink:href="#DejaVuSans-40"/>
      <use x="537.451172" xlink:href="#DejaVuSans-101"/>
      <use x="598.974609" xlink:href="#DejaVuSans-109"/>
      <use x="696.386719" xlink:href="#DejaVuSans-32"/>
      <use x="728.173828" xlink:href="#DejaVuSans-110"/>
      <use x="791.552734" xlink:href="#DejaVuSans-186"/>
      <use x="838.671875" xlink:href="#DejaVuSans-32"/>
      <use x="870.458984" xlink:href="#DejaVuSans-100"/>
      <use x="933.935547" xlink:href="#DejaVuSans-101"/>
      <use x="995.458984" xlink:href="#DejaVuSans-32"/>
      <use x="1027.246094" xlink:href="#DejaVuSans-110"/>
      <use x="1090.625" xlink:href="#DejaVuSans-101"/>
      <use x="1152.148438" xlink:href="#DejaVuSans-117"/>
      <use x="1215.527344" xlink:href="#DejaVuSans-114"/>
      <use x="1256.609375" xlink:href="#DejaVuSans-244"/>
      <use x="1317.791016" xlink:href="#DejaVuSans-110"/>
      <use x="1381.169922" xlink:href="#DejaVuSans-105"/>
      <use x="1408.953125" xlink:href="#DejaVuSans-111"/>
      <use x="1470.134766" xlink:href="#DejaVuSans-115"/>
      <use x="1522.234375" xlink:href="#DejaVuSans-41"/>
     </g>
    </g>
    <g id="line2d_50">
     <path d="M 526.260937 114.176562 
L 546.260937 114.176562 
" style="fill:none;stroke:#1f77b4;stroke-linecap:square;stroke-width:1.5;"/>
    </g>
    <g id="line2d_51"/>
    <g id="text_15">
     <!-- 10 -->
     <g transform="translate(554.260937 117.676562)scale(0.1 -0.1)">
      <use xlink:href="#DejaVuSans-49"/>
      <use x="63.623047" xlink:href="#DejaVuSans-48"/>
     </g>
    </g>
    <g id="line2d_52">
     <path d="M 526.260937 128.854687 
L 546.260937 128.854687 
" style="fill:none;stroke:#ff7f0e;stroke-linecap:square;stroke-width:1.5;"/>
    </g>
    <g id="line2d_53"/>
    <g id="text_16">
     <!-- 100 -->
     <g transform="translate(554.260937 132.354687)scale(0.1 -0.1)">
      <use xlink:href="#DejaVuSans-49"/>
      <use x="63.623047" xlink:href="#DejaVuSans-48"/>
      <use x="127.246094" xlink:href="#DejaVuSans-48"/>
     </g>
    </g>
    <g id="line2d_54">
     <path d="M 526.260937 143.532812 
L 546.260937 143.532812 
" style="fill:none;stroke:#2ca02c;stroke-linecap:square;stroke-width:1.5;"/>
    </g>
    <g id="line2d_55"/>
    <g id="text_17">
     <!-- 200 -->
     <g transform="translate(554.260937 147.032812)scale(0.1 -0.1)">
      <use xlink:href="#DejaVuSans-50"/>
      <use x="63.623047" xlink:href="#DejaVuSans-48"/>
      <use x="127.246094" xlink:href="#DejaVuSans-48"/>
     </g>
    </g>
    <g id="line2d_56">
     <path d="M 526.260937 158.210937 
L 546.260937 158.210937 
" style="fill:none;stroke:#d62728;stroke-linecap:square;stroke-width:1.5;"/>
    </g>
    <g id="line2d_57"/>
    <g id="text_18">
     <!-- 10,10 -->
     <defs>
      <path d="M 11.71875 12.40625 
L 22.015625 12.40625 
L 22.015625 4 
L 14.015625 -11.625 
L 7.71875 -11.625 
L 11.71875 4 
z
" id="DejaVuSans-44"/>
     </defs>
     <g transform="translate(554.260937 161.710937)scale(0.1 -0.1)">
      <use xlink:href="#DejaVuSans-49"/>
      <use x="63.623047" xlink:href="#DejaVuSans-48"/>
      <use x="127.246094" xlink:href="#DejaVuSans-44"/>
      <use x="159.033203" xlink:href="#DejaVuSans-49"/>
      <use x="222.65625" xlink:href="#DejaVuSans-48"/>
     </g>
    </g>
    <g id="line2d_58">
     <path d="M 526.260937 172.889062 
L 546.260937 172.889062 
" style="fill:none;stroke:#9467bd;stroke-linecap:square;stroke-width:1.5;"/>
    </g>
    <g id="line2d_59"/>
    <g id="text_19">
     <!-- 10,100 -->
     <g transform="translate(554.260937 176.389062)scale(0.1 -0.1)">
      <use xlink:href="#DejaVuSans-49"/>
      <use x="63.623047" xlink:href="#DejaVuSans-48"/>
      <use x="127.246094" xlink:href="#DejaVuSans-44"/>
      <use x="159.033203" xlink:href="#DejaVuSans-49"/>
      <use x="222.65625" xlink:href="#DejaVuSans-48"/>
      <use x="286.279297" xlink:href="#DejaVuSans-48"/>
     </g>
    </g>
    <g id="line2d_60">
     <path d="M 526.260937 187.567187 
L 546.260937 187.567187 
" style="fill:none;stroke:#8c564b;stroke-linecap:square;stroke-width:1.5;"/>
    </g>
    <g id="line2d_61"/>
    <g id="text_20">
     <!-- 100,10 -->
     <g transform="translate(554.260937 191.067187)scale(0.1 -0.1)">
      <use xlink:href="#DejaVuSans-49"/>
      <use x="63.623047" xlink:href="#DejaVuSans-48"/>
      <use x="127.246094" xlink:href="#DejaVuSans-48"/>
      <use x="190.869141" xlink:href="#DejaVuSans-44"/>
      <use x="222.65625" xlink:href="#DejaVuSans-49"/>
      <use x="286.279297" xlink:href="#DejaVuSans-48"/>
     </g>
    </g>
    <g id="line2d_62">
     <path d="M 526.260937 202.245312 
L 546.260937 202.245312 
" style="fill:none;stroke:#e377c2;stroke-linecap:square;stroke-width:1.5;"/>
    </g>
    <g id="line2d_63"/>
    <g id="text_21">
     <!-- 100,100 -->
     <g transform="translate(554.260937 205.745312)scale(0.1 -0.1)">
      <use xlink:href="#DejaVuSans-49"/>
      <use x="63.623047" xlink:href="#DejaVuSans-48"/>
      <use x="127.246094" xlink:href="#DejaVuSans-48"/>
      <use x="190.869141" xlink:href="#DejaVuSans-44"/>
      <use x="222.65625" xlink:href="#DejaVuSans-49"/>
      <use x="286.279297" xlink:href="#DejaVuSans-48"/>
      <use x="349.902344" xlink:href="#DejaVuSans-48"/>
     </g>
    </g>
    <g id="line2d_64">
     <path d="M 526.260937 216.923437 
L 546.260937 216.923437 
" style="fill:none;stroke:#7f7f7f;stroke-linecap:square;stroke-width:1.5;"/>
    </g>
    <g id="line2d_65"/>
    <g id="text_22">
     <!-- 200,100 -->
     <g transform="translate(554.260937 220.423437)scale(0.1 -0.1)">
      <use xlink:href="#DejaVuSans-50"/>
      <use x="63.623047" xlink:href="#DejaVuSans-48"/>
      <use x="127.246094" xlink:href="#DejaVuSans-48"/>
      <use x="190.869141" xlink:href="#DejaVuSans-44"/>
      <use x="222.65625" xlink:href="#DejaVuSans-49"/>
      <use x="286.279297" xlink:href="#DejaVuSans-48"/>
      <use x="349.902344" xlink:href="#DejaVuSans-48"/>
     </g>
    </g>
    <g id="line2d_66">
     <path d="M 526.260937 231.601562 
L 546.260937 231.601562 
" style="fill:none;stroke:#bcbd22;stroke-linecap:square;stroke-width:1.5;"/>
    </g>
    <g id="line2d_67"/>
    <g id="text_23">
     <!-- 200,200 -->
     <g transform="translate(554.260937 235.101562)scale(0.1 -0.1)">
      <use xlink:href="#DejaVuSans-50"/>
      <use x="63.623047" xlink:href="#DejaVuSans-48"/>
      <use x="127.246094" xlink:href="#DejaVuSans-48"/>
      <use x="190.869141" xlink:href="#DejaVuSans-44"/>
      <use x="222.65625" xlink:href="#DejaVuSans-50"/>
      <use x="286.279297" xlink:href="#DejaVuSans-48"/>
      <use x="349.902344" xlink:href="#DejaVuSans-48"/>
     </g>
    </g>
   </g>
  </g>
 </g>
 <defs>
  <clipPath id="p0b34b1688d">
   <rect height="554.4" width="558" x="90" y="86.4"/>
  </clipPath>
 </defs>
</svg>
